<svg xmlns="http://www.w3.org/2000/svg" viewBox="0 0 32 32"><path fill="#90cff1" d="M15.5 7.304c2.187 4.021 4.561 5.92 4.561 8.439a4.561 4.561 0 1 1-9.122 0c0-2.519 2.373-4.418 4.561-8.439"/><path fill="#eff2fa" d="M13.304 18.319a.5.5 0 0 1-.366-.159A3.486 3.486 0 0 1 12 15.775c0-1.067.546-1.955 1.154-2.846a.5.5 0 0 1 .826.564c-.636.931-.98 1.57-.98 2.281 0 .634.238 1.239.67 1.703a.5.5 0 0 1-.366.842z" opacity=".25"/><path fill="#72b7e5" d="M15.5 7.304c-.227.417-.455.797-.683 1.172 1.725 2.62 3.244 4.255 3.244 6.268a4.561 4.561 0 0 1-5.498 4.463 4.521 4.521 0 0 0 2.937 1.098c2.519 0 4.561-2.042 4.561-4.561s-2.374-4.419-4.561-8.44z"/><path fill="none" stroke="#90cff1" stroke-linecap="round" stroke-linejoin="round" stroke-miterlimit="10" d="M10 18.781c-1.833.367-3 .913-3 1.523 0 1.105 3.806 2 8.5 2s8.5-.895 8.5-2c0-.611-1.167-1.156-3-1.523"/><path fill="none" stroke="#90cff1" stroke-linecap="round" stroke-linejoin="round" stroke-miterlimit="10" d="M9 17.006c-3.018.721-5 1.929-5 3.299 0 2.209 5.149 4 11.5 4s11.5-1.791 11.5-4c0-1.37-1.982-2.578-5-3.299"/></svg>