<svg xmlns="http://www.w3.org/2000/svg" enable-background="new 0 0 64 64" viewBox="0 0 64 64"><path fill="#2a2f63" d="M45.1,47.5c0-0.1,0-0.2,0-0.3c-0.1-1.9-0.4-3.8-0.8-5.5c-1.3-5.8,0-11.2,0.9-13.9c0.6-1.9,0.9-3.7,0.8-5.5c-0.2-6.9-4.4-9.8-6.9-10.9c-0.9-0.4-1.5-1.3-1.5-2.2v-1h0.1c0.8,0,1.4-0.6,1.4-1.4V1.4c0-0.8-0.6-1.4-1.4-1.4H26.3c-0.8,0-1.4,0.6-1.4,1.4v5.4c0,0.8,0.6,1.4,1.4,1.4h0.1v1c0,1-0.6,1.8-1.5,2.2c-2.5,1.1-6.6,3.9-6.9,10.9c-0.1,1.7,0.2,3.6,0.8,5.5c0.9,2.7,2.1,8.2,0.9,13.9c-0.4,1.8-0.6,3.7-0.8,5.7v0.1c-0.1,1.2-0.1,2.5-0.1,3.8v8c0,2.6,2.1,4.7,4.7,4.7h17.1c2.6,0,4.7-2.1,4.7-4.7v-8C45.2,50.1,45.2,48.8,45.1,47.5C45.1,47.6,45.1,47.6,45.1,47.5z M27.7,2.9h8.5v2.5h-8.5V2.9z M42.4,59.3c0,1-0.8,1.8-1.8,1.8H23.4c-1,0-1.8-0.8-1.8-1.8v-8c0-0.8,0-1.6,0-2.4h20.6c0,0.8,0.1,1.6,0.1,2.4V59.3z M42.4,27c-1,3-2.4,9-1,15.4c0.3,1.2,0.4,2.4,0.6,3.7H21.9c0.1-1.3,0.3-2.5,0.6-3.7c1.4-6.4,0-12.4-1-15.4c-0.2-0.6-0.3-1.2-0.4-1.8h21.8C42.8,25.7,42.6,26.3,42.4,27z M20.9,22.3c0.2-4.9,2.9-7.2,5.2-8.1c2-0.9,3.2-2.8,3.2-4.9v-1h5.4v1c0,2.1,1.3,4,3.2,4.9c2.2,1,4.9,3.2,5.1,8.1H20.9z"/><path fill="#d7e9f2" d="M42.4 51.4v8c0 1-.8 1.8-1.8 1.8H23.4c-1 0-1.8-.8-1.8-1.8v-8c0-.8 0-1.6 0-2.4h20.6C42.3 49.7 42.4 50.6 42.4 51.4zM43.1 22.3H20.9c.2-4.9 2.9-7.2 5.2-8.1 2-.9 3.2-2.8 3.2-4.9v-1h5.4v1c0 2.1 1.3 4 3.2 4.9C40.2 15.1 42.9 17.3 43.1 22.3z"/><path fill="#219ff4" d="M42.9,25.1H21.1c0.1,0.6,0.2,1.2,0.4,1.8c1,3,2.4,9,1,15.4c-0.3,1.2-0.4,2.4-0.6,3.7h20.1c-0.1-1.3-0.3-2.5-0.6-3.7c-1.4-6.4,0-12.4,1-15.4C42.6,26.3,42.8,25.7,42.9,25.1z M32,42.9c-3.3,0-6-2.7-6-6c0-2.9,4.1-7.3,4.9-8.1c0.3-0.3,0.6-0.4,1-0.4c0.4,0,0.7,0.2,1,0.4c0.8,0.8,4.9,5.2,4.9,8.1C38,40.2,35.3,42.9,32,42.9z"/><rect width="8.5" height="2.5" x="27.7" y="2.9" fill="#a0c3d8"/><path fill="#2a2f63" d="M33,28.8c-0.3-0.3-0.6-0.4-1-0.4c-0.4,0-0.8,0.2-1,0.4c-0.8,0.8-4.9,5.2-4.9,8.1c0,3.3,2.7,6,6,6c3.3,0,6-2.7,6-6C38,34,33.8,29.7,33,28.8z M32,40c-1.7,0-3.1-1.4-3.1-3.1c0-1,1.5-3.1,3.1-5c1.6,1.9,3.1,4,3.1,5C35.1,38.6,33.7,40,32,40z"/><path fill="#ffc610" d="M35.1,36.9c0,1.7-1.4,3.1-3.1,3.1c-1.7,0-3.1-1.4-3.1-3.1c0-1,1.5-3.1,3.1-5C33.6,33.8,35.1,35.9,35.1,36.9z"/></svg>